<svg width="20" height="20" viewBox="0 0 14 16" fill="none" xmlns="http://www.w3.org/2000/svg">
<path d="M1.31248 0C0.58624 0 0 0.661235 0 1.4784V14.2896C0 15.1067 0.587115 15.768 1.31248 15.768H2.18746C2.91108 15.768 3.49906 15.1067 3.49906 14.2896V1.4784C3.49906 0.661235 2.91108 0 2.18659 0H1.31248ZM5.68565 0C4.96116 0 4.37318 0.661235 4.37318 1.4784V14.2896C4.37318 15.1067 4.96116 15.768 5.68565 15.768H6.56064C7.28513 15.768 7.87224 15.1067 7.87224 14.2896V1.4784C7.87224 0.662221 7.28512 0 6.55976 0H5.68478H5.68565ZM12.003 4.10262C11.9631 3.90725 11.8883 3.72308 11.7833 3.56127C11.6784 3.39947 11.5453 3.2634 11.3923 3.16133C11.2393 3.05926 11.0695 2.99331 10.8932 2.96749C10.717 2.94166 10.5379 2.95649 10.3668 3.01109L9.71496 3.21834C9.39649 3.3199 9.12387 3.55358 8.95184 3.87247C8.7798 4.19136 8.72108 4.57185 8.78747 4.93755L10.5401 14.6084C10.5759 14.8044 10.6465 14.9902 10.7478 15.1545C10.8491 15.3188 10.9788 15.4583 11.1292 15.5645C11.2796 15.6707 11.4476 15.7413 11.6229 15.7722C11.7982 15.8031 11.9772 15.7936 12.1492 15.7443L13.011 15.4976C13.7023 15.3002 14.1258 14.5166 13.9665 13.7339L12.003 4.10262Z" fill="white"/>
</svg>
