<svg width="20" height="20" viewBox="0 0 14 16" fill="none" xmlns="http://www.w3.org/2000/svg">
<path d="M0 1.4784C0 0.661235 0.587115 0 1.31248 0H2.18746C2.91108 0 3.49906 0.661235 3.49906 1.4784V14.2906C3.49906 15.1067 2.91108 15.768 2.18659 15.768H1.3116C0.587115 15.768 0 15.1067 0 14.2906V1.4784ZM1.31248 0.984944C1.19645 0.984944 1.08517 1.03693 1.00312 1.12947C0.921078 1.22202 0.874985 1.34753 0.874985 1.4784V14.2906C0.875217 14.4213 0.921412 14.5465 1.00343 14.6389C1.08545 14.7312 1.1966 14.783 1.31248 14.783H2.18746C2.30334 14.7828 2.41439 14.7307 2.49625 14.6382C2.57811 14.5456 2.62408 14.4203 2.62408 14.2896V1.47939C2.62408 1.34852 2.57799 1.223 2.49594 1.13046C2.4139 1.03792 2.30262 0.985931 2.18659 0.985931H1.3116L1.31248 0.984944ZM4.37318 1.4784C4.37318 0.661235 4.96116 0 5.68565 0H6.56064C7.28513 0 7.87224 0.661235 7.87224 1.4784V14.2906C7.87224 15.1067 7.28512 15.768 6.55976 15.768H5.68478C4.96116 15.768 4.37318 15.1067 4.37318 14.2906V1.4784ZM5.68565 0.984944C5.56962 0.984944 5.45834 1.03693 5.3763 1.12947C5.29425 1.22202 5.24816 1.34753 5.24816 1.4784V14.2906C5.24839 14.4213 5.29459 14.5465 5.37661 14.6389C5.45863 14.7312 5.56977 14.783 5.68565 14.783H6.56064C6.67667 14.783 6.78795 14.731 6.86999 14.6385C6.95204 14.546 6.99813 14.4205 6.99813 14.2896V1.47939C6.99813 1.34852 6.95204 1.223 6.86999 1.13046C6.78795 1.03792 6.67667 0.985931 6.56064 0.985931H5.68565V0.984944ZM12.003 4.10262C11.9631 3.90725 11.8883 3.72308 11.7833 3.56127C11.6784 3.39947 11.5453 3.2634 11.3923 3.16133C11.2393 3.05926 11.0695 2.99331 10.8932 2.96749C10.717 2.94166 10.5379 2.95649 10.3668 3.01109L9.71496 3.21834C9.39667 3.31989 9.1242 3.55342 8.95218 3.87209C8.78016 4.19076 8.72133 4.57101 8.78747 4.93656L10.5401 14.6084C10.5759 14.8044 10.6465 14.9902 10.7478 15.1545C10.8491 15.3188 10.9788 15.4583 11.1292 15.5645C11.2796 15.6707 11.4476 15.7413 11.6229 15.7722C11.7982 15.8031 11.9772 15.7936 12.1492 15.7443L13.011 15.4976C13.7023 15.3002 14.1258 14.5166 13.9665 13.7339L12.003 4.10262ZM10.6048 3.95951C10.6618 3.9412 10.7215 3.93616 10.7803 3.94467C10.8391 3.95319 10.8958 3.9751 10.9469 4.00906C10.9979 4.04303 11.0423 4.08834 11.0774 4.14226C11.1124 4.19617 11.1374 4.25756 11.1508 4.3227L13.1134 13.955C13.1386 14.0804 13.1194 14.2119 13.0599 14.3216C13.0004 14.4313 12.9054 14.5104 12.7949 14.5422L11.933 14.789C11.8758 14.8054 11.8161 14.8086 11.7577 14.7983C11.6993 14.7881 11.6434 14.7646 11.5932 14.7293C11.5431 14.6939 11.4999 14.6475 11.4661 14.5928C11.4323 14.5381 11.4087 14.4762 11.3967 14.411L9.64408 4.73918C9.62225 4.61743 9.64192 4.49088 9.69917 4.38477C9.75642 4.27867 9.84705 4.20082 9.95295 4.16677L10.6048 3.95951Z" fill="#E5E5E5"/>
</svg>
