<svg width="24" height="18" viewBox="0 0 24 18" fill="none" xmlns="http://www.w3.org/2000/svg">
<path d="M1.33333 10.8C2.06667 10.8 2.66667 9.99 2.66667 9C2.66667 8.01 2.06667 7.2 1.33333 7.2C0.6 7.2 0 8.01 0 9C0 9.99 0.6 10.8 1.33333 10.8ZM1.33333 18C2.06667 18 2.66667 17.19 2.66667 16.2C2.66667 15.21 2.06667 14.4 1.33333 14.4C0.6 14.4 0 15.21 0 16.2C0 17.19 0.6 18 1.33333 18ZM1.33333 3.6C2.06667 3.6 2.66667 2.79 2.66667 1.8C2.66667 0.81 2.06667 0 1.33333 0C0.6 0 0 0.81 0 1.8C0 2.79 0.6 3.6 1.33333 3.6ZM6.66667 10.8H22.6667C23.4 10.8 24 9.99 24 9C24 8.01 23.4 7.2 22.6667 7.2H6.66667C5.93333 7.2 5.33333 8.01 5.33333 9C5.33333 9.99 5.93333 10.8 6.66667 10.8ZM6.66667 18H22.6667C23.4 18 24 17.19 24 16.2C24 15.21 23.4 14.4 22.6667 14.4H6.66667C5.93333 14.4 5.33333 15.21 5.33333 16.2C5.33333 17.19 5.93333 18 6.66667 18ZM5.33333 1.8C5.33333 2.79 5.93333 3.6 6.66667 3.6H22.6667C23.4 3.6 24 2.79 24 1.8C24 0.81 23.4 0 22.6667 0H6.66667C5.93333 0 5.33333 0.81 5.33333 1.8ZM1.33333 10.8C2.06667 10.8 2.66667 9.99 2.66667 9C2.66667 8.01 2.06667 7.2 1.33333 7.2C0.6 7.2 0 8.01 0 9C0 9.99 0.6 10.8 1.33333 10.8ZM1.33333 18C2.06667 18 2.66667 17.19 2.66667 16.2C2.66667 15.21 2.06667 14.4 1.33333 14.4C0.6 14.4 0 15.21 0 16.2C0 17.19 0.6 18 1.33333 18ZM1.33333 3.6C2.06667 3.6 2.66667 2.79 2.66667 1.8C2.66667 0.81 2.06667 0 1.33333 0C0.6 0 0 0.81 0 1.8C0 2.79 0.6 3.6 1.33333 3.6ZM6.66667 10.8H22.6667C23.4 10.8 24 9.99 24 9C24 8.01 23.4 7.2 22.6667 7.2H6.66667C5.93333 7.2 5.33333 8.01 5.33333 9C5.33333 9.99 5.93333 10.8 6.66667 10.8ZM6.66667 18H22.6667C23.4 18 24 17.19 24 16.2C24 15.21 23.4 14.4 22.6667 14.4H6.66667C5.93333 14.4 5.33333 15.21 5.33333 16.2C5.33333 17.19 5.93333 18 6.66667 18ZM5.33333 1.8C5.33333 2.79 5.93333 3.6 6.66667 3.6H22.6667C23.4 3.6 24 2.79 24 1.8C24 0.81 23.4 0 22.6667 0H6.66667C5.93333 0 5.33333 0.81 5.33333 1.8Z" fill="white"/>
</svg>
