<svg width="24" height="24" viewBox="0 0 15 15" fill="none" xmlns="http://www.w3.org/2000/svg">
<path d="M15 7.5C15.0006 7.69588 14.9412 7.88854 14.8277 8.05926C14.7142 8.22998 14.5504 8.37293 14.3523 8.47423L2.07273 14.8302C1.8657 14.9374 1.62858 14.996 1.38586 14.9998C1.14314 15.0036 0.903626 14.9525 0.692046 14.8518C0.48248 14.7527 0.307906 14.6081 0.186276 14.4329C0.0646461 14.2578 0.000350163 14.0584 0 13.8552V1.14478C0.000350163 0.941626 0.0646461 0.742221 0.186276 0.567067C0.307906 0.391912 0.48248 0.247331 0.692046 0.148189C0.903626 0.047484 1.14314 -0.00360526 1.38586 0.000197836C1.62858 0.00400093 1.8657 0.0625586 2.07273 0.169823L14.3523 6.52577C14.5504 6.62707 14.7142 6.77002 14.8277 6.94074C14.9412 7.11146 15.0006 7.30412 15 7.5Z" fill="white"/>
</svg>
