<svg width="22" height="22" viewBox="0 0 22 22" fill="none" xmlns="http://www.w3.org/2000/svg">
<path d="M0 0.917127C0 0.674034 0.0965716 0.440898 0.26847 0.269005C0.440369 0.0971131 0.673514 0.000545054 0.916616 0.000545054C1.15972 0.000545054 1.39286 0.0971131 1.56476 0.269005C1.73666 0.440898 1.83323 0.674034 1.83323 0.917127V21.0819C1.83323 21.325 1.73666 21.5582 1.56476 21.73C1.39286 21.9019 1.15972 21.9985 0.916616 21.9985C0.673514 21.9985 0.440369 21.9019 0.26847 21.73C0.0965716 21.5582 0 21.325 0 21.0819V0.917127ZM21.9988 2.1429C21.9988 0.422172 20.0702 -0.594622 18.6501 0.378177L5.82112 9.17003C5.53558 9.36574 5.30182 9.62784 5.13991 9.93382C4.978 10.2398 4.89279 10.5805 4.89158 10.9267C4.89038 11.2728 4.97323 11.6141 5.13301 11.9212C5.29279 12.2283 5.52473 12.492 5.8089 12.6897L18.6403 21.6135C20.058 22.5998 22 21.5842 22 19.8574L21.9988 2.1429Z" fill="#e3e3e3"/>
</svg>
