<svg  width="23" height="25" viewBox="0 0 14 16" fill="none" xmlns="http://www.w3.org/2000/svg">
<path fill-rule="evenodd" clip-rule="evenodd" d="M6.12503 1.3158C5.33437 1.31587 4.5552 1.5292 3.85251 1.93798C3.14982 2.34677 2.544 2.93915 2.08558 3.66571C1.62716 4.39227 1.32945 5.23194 1.21727 6.11467C1.1051 6.99739 1.18171 7.89757 1.44073 8.74011C1.69975 9.58265 2.13365 10.3431 2.70625 10.958C3.27884 11.573 3.97352 12.0246 4.73233 12.2751C5.49113 12.5257 6.29206 12.5679 7.06829 12.3983C7.84452 12.2288 8.57354 11.8523 9.19453 11.3003L11.3249 13.7031C11.4349 13.8229 11.5822 13.8892 11.7352 13.8877C11.8881 13.8862 12.0344 13.817 12.1426 13.695C12.2507 13.5731 12.3121 13.408 12.3134 13.2355C12.3147 13.063 12.256 12.8968 12.1497 12.7728L10.0194 10.37C10.5957 9.54542 10.9545 8.55446 11.0548 7.51056C11.1551 6.46666 10.9928 5.412 10.5865 4.46728C10.1802 3.52256 9.54621 2.72595 8.7572 2.16861C7.96819 1.61127 7.056 1.31573 6.12503 1.3158ZM2.33336 6.90809C2.33336 5.7739 2.73284 4.68617 3.44391 3.88417C4.15499 3.08218 5.11941 2.63163 6.12503 2.63163C7.13064 2.63163 8.09506 3.08218 8.80614 3.88417C9.51721 4.68617 9.91669 5.7739 9.91669 6.90809C9.91669 8.04227 9.51721 9.13001 8.80614 9.932C8.09506 10.734 7.13064 11.1845 6.12503 11.1845C5.11941 11.1845 4.15499 10.734 3.44391 9.932C2.73284 9.13001 2.33336 8.04227 2.33336 6.90809Z" fill="#E5E5E5"/>
</svg>
