<svg width="24" height="24" viewBox="0 0 17 17" fill="none" xmlns="http://www.w3.org/2000/svg">
<path d="M4.75 1H2.25C1.55964 1 1 1.47969 1 2.07143V14.9286C1 15.5203 1.55964 16 2.25 16H4.75C5.44036 16 6 15.5203 6 14.9286V2.07143C6 1.47969 5.44036 1 4.75 1Z" stroke="white" stroke-width="2" stroke-linecap="round"/>
<path d="M14.75 1H12.25C11.5596 1 11 1.47969 11 2.07143V14.9286C11 15.5203 11.5596 16 12.25 16H14.75C15.4404 16 16 15.5203 16 14.9286V2.07143C16 1.47969 15.4404 1 14.75 1Z" stroke="white" stroke-width="2" stroke-linecap="round"/>
</svg>
